<?xml version="1.0" ?><svg id="Icons" style="enable-background:new 0 0 32 32;" version="1.1" viewBox="0 0 32 32" xml:space="preserve" xmlns="http://www.w3.org/2000/svg" xmlns:xlink="http://www.w3.org/1999/xlink"><g><path d="M27,10H6c-1.1,0-2-0.9-2-2s0.9-2,2-2h17.5C23.8,6,24,6.2,24,6.5S23.8,7,23.5,7H7C6.4,7,6,7.4,6,8s0.4,1,1,1h16.5   C24.9,9,26,7.9,26,6.5S24.9,4,23.5,4H6C3.8,4,2,5.8,2,8v16c0,2.2,1.8,4,4,4h21c1.7,0,3-1.3,3-3V13C30,11.3,28.7,10,27,10z M28,15.8   v6.4c-0.3-0.1-0.6-0.2-1-0.2h-4c-1.7,0-3-1.3-3-3s1.3-3,3-3h4C27.4,16,27.7,15.9,28,15.8z"/><path d="M25,18h-2c-0.6,0-1,0.4-1,1s0.4,1,1,1h2c0.6,0,1-0.4,1-1S25.6,18,25,18z"/></g></svg>